<svg xmlns="http://www.w3.org/2000/svg" viewBox="0 0 272.38 272.38"><path d="M223.21 152.72h-32.23c16.3-20.15 26.76-47.2 26.76-71.41C217.74 36.47 181.26 0 136.43 0S55.1 36.47 55.1 81.3c0 24.23 10.46 51.27 26.76 71.42h-32.7a43.37 43.37 0 00-36.6 19.98c-5.68 8.8-6.87 24.24-3.54 45.86l4.26 27.7c2.25 14.65 15.62 26.12 30.44 26.12h184.92c14.82 0 28.2-11.47 30.45-26.12l4.25-27.7c3.33-21.62 2.14-37.05-3.53-45.86a43.4 43.4 0 00-36.6-19.98zm25.13 91.9c-1.4 9.15-10.42 16.88-19.69 16.88H43.72c-9.26 0-18.28-7.73-19.68-16.88l-4.26-27.7c-2.83-18.4-2.15-32 1.93-38.33a32.53 32.53 0 0127.45-14.99H92c12.9 11.99 28.23 19.67 44.42 19.67s31.53-7.68 44.42-19.67h42.37c11.15 0 21.42 5.6 27.46 14.99 4.08 6.32 4.76 19.94 1.93 38.32l-4.26 27.7zM207.41 81.3c0 24.44-12.28 52.78-30.27 71.41a86.91 86.91 0 01-5.74 5.44 74.06 74.06 0 01-7.07 5.44c-8.69 5.83-18.14 9.34-27.9 9.34s-19.22-3.5-27.9-9.34a73.93 73.93 0 01-7.07-5.44 86.91 86.91 0 01-5.75-5.44c-17.99-18.63-30.27-46.97-30.27-71.41 0-39.14 31.84-70.99 70.99-70.99s70.98 31.85 70.98 70.99z" fill="#010002"/></svg>